PathFileType	4	(X/Y/Z)	C:/Users/beibeiliu/ov580/test_trc/User1\sequence.22_training_dense_left.trc
DataRate	CameraRate	NumFrames	NumMarkers	Units	OrigDataRate	OrigDataStartFrame	OrigNumFrames
120	120	14	19	mm	120	103	273
Frame#	Time	ThumbCMC			ThumbMCP			ThumbIP			ThumbTip			IndexMCP			IndexPIP			IndexTip			MiddleMCP			MiddlePIP			MiddleTip			RingMCP			RingPIP			RingTip			PinkyMCP			PinkyPIP			PinkyTip			BackHand1			BackHand2			BackHand3	
		X0	Y0	Z0	X1	Y1	Z1	X2	Y2	Z2	X3	Y3	Z3	X4	Y4	Z4	X5	Y5	Z5	X6	Y6	Z6	X7	Y7	Z7	X8	Y8	Z8	X9	Y9	Z9	X10	Y10	Z10	X11	Y11	Z11	X12	Y12	Z12	X13	Y13	Z13	X14	Y14	Z14	X15	Y15	Z15	X16	Y16	Z16	X17	Y17	Z17	X18	Y18	Z18	
102	0.85	-199.776	29.2091	37.8913	-191.822	28.7772	1.01335	-190.516	20.6397	-23.1943	-187.009	14.0461	-47.9707	-219.921	-27.1294	-21.0821	-207.143	-28.0814	-46.9111	-183.499	-18.7509	-64.2832	-191.841	-38.4578	-20.6621	-174.414	-11.0424	-33.5826	-172.706	5.31991	2.68932	-167.748	-39.8091	-10.594	-153.851	-8.41034	-14.0694	-158.44	1.1113	17.754	-153.967	-44.0393	4.48209	-147.267	-15.1097	-0.140544	-155.103	-5.86413	30.1411	-184.238	-40.4608	50.4273	-179.298	-20.0437	78.2868	-208.039	-10.0519	57.7608	
103	0.858333	-193.657	33.8007	36.658	-184.995	35.8326	1.83779	-184.524	31.2624	-26.6446	-181.039	24.1342	-51.1708	-218.613	-16.9601	-24.273	-203.688	-17.939	-52.1637	-178.737	-5.49052	-68.6735	-194.399	-28.2411	-25.0127	-169.028	-4.57602	-33.5544	-169.522	11.2288	-1.26001	-172.745	-31.9293	-15.6065	-153.309	-5.0191	-16.1416	-160.487	4.0942	17.6006	-156.988	-40.292	-0.894711	-147.848	-12.0731	-0.908773	-159.313	-2.72238	29.2165	-190.164	-34.412	44.5966	-183.826	-17.4897	74.6664	-209.197	-1.89782	53.014	
104	0.866667	-186.453	41.9342	36.9757	-175.818	40.7443	-0.363357	-173.269	37.6569	-28.6301	-170.231	31.6106	-54.0893	-216.016	-2.64474	-29.9886	-196.452	-6.68058	-56.416	-166.847	1.66797	-68.6926	-193.106	-20.0131	-28.26	-164.943	-1.0509	-36.1629	-167.277	15.2459	1.71185	-171.134	-27.4274	-19.8719	-150.173	-5.06724	-17.5649	-158.869	6.82653	15.7524	-163.547	-39.3644	-0.0855601	-146.88	-13.7323	-2.19465	-155.468	-1.05596	27.1348	-197.581	-29.6919	41.4282	-187.953	-15.0607	77.1752	-209.209	11.6935	49.5915	
105	0.875	-177.523	43.6015	34.7824	-160.79	43.7252	2.05537	-160.269	37.0618	-25.9985	-152.893	35.8558	-46.4879	-208.835	14.0495	-34.0342	-191.099	3.76238	-56.1055	-157.953	7.76118	-69.3547	-193.81	-6.5623	-32.5675	-160.657	0.896321	-37.8334	-158.537	17.0099	-0.119697	-178.066	-24.0155	-18.4908	-147.096	-4.2786	-14.9524	-156.455	5.68484	18.5135	-166.824	-39.7054	-2.70968	-145.345	-18.6681	-1.87624	-157.09	-1.75602	22.9258	-204.05	-16.8011	36.9897	-194.737	-7.66295	72.6235	-206.593	16.3184	43.8651	
106	0.883333	-163.681	48.3634	36.7501	-144.733	45.1647	5.60161	-144.776	38.7436	-24.2048	-139.676	32.6729	-49.2439	-197.97	24.5995	-38.1393	-181.382	14.7988	-59.9007	-151.27	7.85213	-67.8188	-187.651	-1.03362	-36.2085	-155.23	1.30975	-35.5027	-153.879	12.3741	4.10055	-179.251	-18.8506	-20.84	-146.609	-12.4775	-13.6051	-152.22	-0.942918	17.3555	-172.226	-34.4283	-7.57303	-146.499	-24.3385	0.254066	-157.42	-6.13895	29.9148	-206.684	-11.7048	32.3822	-196.851	-4.2996	70.8097	-200.315	29.0503	44.8675	
107	0.891667	-154.698	43.1477	40.8275	-138.585	39.2973	4.83445	-134.788	35.6627	-19.3144	-128.118	32.5074	-44.8965	-190.025	35.4937	-34.9619	-174.759	20.8579	-58.5741	-146.928	6.25053	-66.7688	-184.123	4.9419	-35.9841	-150.561	2.06451	-32.5246	-149.791	9.72144	2.93299	-178.652	-16.1619	-22.0178	-147.379	-17.0489	-12.4669	-153.067	-0.115446	18.508	-179.432	-32.5385	-9.01939	-153.368	-24.966	-1.04158	-159.677	-6.91506	26.1995	-209.591	-4.63975	31.3792	-199.007	-0.449781	68.787	-197.196	34.0181	44.6839	
108	0.9	-148.476	40.5419	44.1173	-133.616	33.6248	10.4401	-127.087	33.7464	-16.373	-119.951	29.4803	-37.6543	-181.876	42.0946	-33.6119	-169.073	26.8016	-57.3326	-141.928	10.3162	-68.1988	-180.854	13.8966	-36.2059	-148.607	2.06222	-29.2406	-149.348	12.4488	7.00086	-178.56	-11.8564	-23.8863	-150.661	-16.956	-11.5919	-156.978	-1.7795	19.9324	-184.931	-27.9685	-9.4975	-156.882	-25.6993	2.08778	-160.815	-6.14696	25.727	-210.352	7.00661	30.4956	-202.958	6.07118	66.303	-190.896	36.3834	44.3323	
109	0.908333	-145.844	37.1537	45.1633	-125.185	32.4315	14.715	-122.861	29.55	-11.9035	-116.01	27.9343	-36.8644	-174.983	45.4273	-31.616	-164.642	34.0916	-53.0082	-143.887	15.1077	-65.127	-180.939	21.5367	-30.9545	-148.638	3.30502	-29.7742	-149.707	7.36448	7.25983	-181.603	-3.64794	-23.5464	-152.714	-13.3387	-8.39522	-158.763	-4.31662	20.2059	-188.964	-22.8736	-11.181	-162.163	-20.5	1.19435	-165.176	-7.0218	30.0755	-209.952	12.611	33.1078	-204.175	10.7088	68.9925	-186.369	41.1639	50.4502	
110	0.916667	-140.13	33.7062	52.5375	-122.428	28.9024	16.3134	-119.934	28.1367	-9.64883	-115.88	25.9251	-32.2079	-168.11	52.991	-26.7662	-158.417	36.7407	-52.0808	-141.994	19.1859	-64.0338	-175.413	28.0948	-31.7404	-149.745	4.86641	-28.671	-149.526	11.5729	12.0819	-181.607	5.22988	-23.4917	-155.764	-11.2539	-10.7984	-162.145	-2.89338	21.7771	-191.716	-12.3733	-11.4913	-166.905	-18.6906	0.963121	-169.462	-4.28186	27.7262	-210.012	19.2965	32.7599	-205.97	12.791	68.6701	-182.259	44.4915	53.0739	
111	0.925	-139.584	29.5265	54.3006	-122.743	20.9933	24.6	-116.684	24.2418	-3.14848	-108.437	22.7443	-26.4347	-159.027	58.51	-22.5862	-152.596	45.216	-47.9283	-136.557	20.5497	-62.697	-170.392	36.5814	-30.6486	-150.702	9.20922	-30.0385	-150.437	9.70556	11.1463	-181.784	10.3416	-22.9212	-159.094	-10.0902	-11.3204	-164.217	-1.10531	20.709	-197.556	-5.49517	-11.9946	-170.413	-18.2589	-0.973581	-173.189	-2.37961	33.1539	-206.51	30.1102	28.9557	-204.831	18.9143	67.5828	-180.352	43.0162	55.5577	
112	0.933333	-135.94	24.5167	58.742	-120.642	17.5698	24.3641	-115.098	20.5037	-1.26141	-105.756	19.1787	-25.5752	-148.785	62.8168	-17.0334	-139.116	50.8307	-45.623	-129.115	24.2942	-62.0902	-169.356	41.0764	-26.0648	-145.914	14.9824	-30.6987	-146.798	8.77702	8.52534	-177.986	17.3938	-23.6859	-159.549	-5.68295	-12.445	-163.784	2.25497	19.9966	-192.858	1.87182	-13.9851	-172.908	-10.4862	-2.52341	-175.752	2.53781	29.5402	-205.014	34.249	32.9093	-204.662	23.9884	65.3055	-175.968	47.0711	56.5674	
113	0.941667	-134.912	22.0859	57.4732	-120.759	13.0139	28.3419	-111.696	16.7439	0.256261	-103.971	16.9639	-24.3741	-141.623	63.5521	-12.5006	-133.538	51.9381	-43.3202	-124.718	28.0647	-60.4907	-161.708	43.2047	-28.0726	-143.141	17.1184	-29.7687	-149.256	11.1415	13.0178	-173.601	23.5457	-24.0283	-158.308	-0.764338	-12.9038	-166.711	5.1451	22.379	-194.565	10.6406	-14.2094	-174.174	-9.4091	-0.338415	-178.207	4.48024	30.9045	-198.179	43.442	32.0799	-207.389	26.7641	65.7912	-171.022	45.9552	60.524	
114	0.95	-139.287	17.349	61.6389	-121.347	12.6503	25.5225	-112.624	16.6614	-0.510976	-106.973	14.3391	-21.628	-135.464	65.3256	-10.3212	-127.449	53.3474	-39.0309	-125.015	31.544	-56.821	-154.262	49.7468	-22.6152	-142.515	15.6912	-25.8223	-144.063	8.73428	8.5506	-173.004	26.3345	-25.0094	-159.16	1.73306	-14.8419	-164.149	4.95046	19.1252	-193.113	19.6124	-14.4841	-173.625	-2.01785	-5.49874	-177.417	4.86597	26.8111	-198.657	43.4211	34.5531	-206.991	30.8298	62.0752	-172.358	46.7119	61.4349	
115	0.958333	-139.841	17.3858	58.9365	-123.273	8.23831	29.5542	-110.258	13.253	0.0549218	-105.025	13.0432	-21.5247	-130.406	65.0811	-7.64694	-122.112	53.5686	-38.1752	-117.45	33.4227	-54.6426	-153.132	50.1884	-23.8497	-142.993	15.8012	-26.1361	-144.949	9.26682	8.01443	-169.735	34.2792	-21.7036	-157.264	1.45262	-12.0688	-163.876	7.72641	18.414	-190.404	21.0691	-18.7875	-176.436	-2.03553	-7.5808	-176.319	10.2225	24.9026	-196.057	48.2868	31.8344	-203.92	34.4988	63.6317	-165.09	47.6871	61.0672	
